<svg xmlns="http://www.w3.org/2000/svg" viewBox="0 0 360 320" fill="none" color="#04635F" role="img" aria-labelledby="title"><title id="title">Virtual Cut Film Edge A — Broad overlap</title><defs><mask id="film-occlusion-3" maskUnits="userSpaceOnUse" x="0" y="0" width="360" height="320"><rect width="360" height="320" fill="white"/><path d="M143 114H322Q329 114 324 120L277 177Q275 180 277 183L324 240Q329 246 322 246H194Z" fill="black"/></mask></defs><g><path fill="currentColor" d="M254 40H298L230 286H186Z" mask="url(#film-occlusion-3)"/><path fill="currentColor" fill-rule="evenodd" d="M143 114H322Q329 114 324 120L277 177Q275 180 277 183L324 240Q329 246 322 246H194Z M172 129H187V141H172Z M202 129H217V141H202Z M232 129H247V141H232Z M262 129H277V141H262Z M221 219H236V231H221Z M251 219H266V231H251Z M281 219H296V231H281Z"/><path fill="currentColor" d="M30 40H124L230 286H142Z"/></g></svg>
