<svg xmlns="http://www.w3.org/2000/svg" width="1800" height="1120" viewBox="0 0 1800 1120"><rect width="1800" height="1120" fill="#111617"/><text x="62" y="62" fill="#71D7CD" font-size="13" font-family="Segoe UI, Arial, sans-serif" letter-spacing="2.5">VIRTUAL CUT / FILM EDGE / ROUND 2</text><text x="62" y="117" fill="#F0F4F2" font-size="38" font-family="Segoe UI, Arial, sans-serif" font-weight="600" letter-spacing="-.8">Two blades. One continuous V.</text><text x="62" y="153" fill="#A9B6B2" font-size="17" font-family="Segoe UI, Arial, sans-serif" >The thicker left blade sits in front. The slimmer right blade continues behind it to a shared tip.</text><rect x="62" y="196" width="544" height="844" rx="15" fill="#1B2222" stroke="#35423F"/><text x="90" y="240" fill="#DCE8E4" font-size="14" font-family="Segoe UI, Arial, sans-serif" letter-spacing="1.6">A / BROAD OVERLAP</text><g transform="translate(120 263) scale(1.1777777777777778)" color="#F0F4F2"><defs><mask id="film-occlusion-13" maskUnits="userSpaceOnUse" x="0" y="0" width="360" height="320"><rect width="360" height="320" fill="white"/><path d="M143 114H322Q329 114 324 120L277 177Q275 180 277 183L324 240Q329 246 322 246H194Z" fill="black"/></mask></defs><g><path fill="#489F96" d="M254 40H298L230 286H186Z" mask="url(#film-occlusion-13)"/><path fill="#04635F" fill-rule="evenodd" d="M143 114H322Q329 114 324 120L277 177Q275 180 277 183L324 240Q329 246 322 246H194Z M172 129H187V141H172Z M202 129H217V141H202Z M232 129H247V141H232Z M262 129H277V141H262Z M221 219H236V231H221Z M251 219H266V231H251Z M281 219H296V231H281Z"/><path fill="#71D7CD" d="M30 40H124L230 286H142Z"/></g></g><text x="90" y="663" fill="#D5DFDA" font-size="15" font-family="Segoe UI, Arial, sans-serif" >Closest to your new sketch.</text><text x="90" y="690" fill="#A9B6B2" font-size="14" font-family="Segoe UI, Arial, sans-serif" >A broad front blade covers a slim, straight rear blade.</text><path d="M90 718H578" stroke="#35423F"/><text x="90" y="750" fill="#8EABA2" font-size="10" font-family="Segoe UI, Arial, sans-serif" letter-spacing="1.6">V CONSTRUCTION</text><g transform="translate(75 765) scale(0.44722222222222224)" color="#F0F4F2"><g><path fill="#489F96" d="M254 40H298L230 286H186Z"/><path fill="#71D7CD" d="M30 40H124L230 286H142Z"/></g></g><text x="253" y="750" fill="#8EABA2" font-size="10" font-family="Segoe UI, Arial, sans-serif" letter-spacing="1.6">JOIN DETAIL</text><svg x="256" y="785" width="127" height="120" viewBox="160 208 106 92"><rect x="160" y="208" width="106" height="92" rx="5" fill="#131A1A"/><g><path fill="#489F96" d="M254 40H298L230 286H186Z"/><path fill="#71D7CD" d="M30 40H124L230 286H142Z"/></g></svg><text x="428" y="750" fill="#8EABA2" font-size="10" font-family="Segoe UI, Arial, sans-serif" letter-spacing="1.6">ONE COLOR</text><g transform="translate(415 784) scale(0.43333333333333335)" color="#F0F4F2"><defs><mask id="film-occlusion-16" maskUnits="userSpaceOnUse" x="0" y="0" width="360" height="320"><rect width="360" height="320" fill="white"/><path d="M143 114H322Q329 114 324 120L277 177Q275 180 277 183L324 240Q329 246 322 246H194Z" fill="black"/></mask></defs><g><path fill="currentColor" d="M254 40H298L230 286H186Z" mask="url(#film-occlusion-16)"/><path fill="currentColor" fill-rule="evenodd" d="M143 114H322Q329 114 324 120L277 177Q275 180 277 183L324 240Q329 246 322 246H194Z M172 129H187V141H172Z M202 129H217V141H202Z M232 129H247V141H232Z M262 129H277V141H262Z M221 219H236V231H221Z M251 219H266V231H251Z M281 219H296V231H281Z"/><path fill="currentColor" d="M30 40H124L230 286H142Z"/></g></g><path d="M90 937H578" stroke="#35423F"/><rect x="91" y="961" width="64" height="56" rx="7" fill="#EEF3F0"/><g transform="translate(95 965) scale(0.15555555555555556)" color="#F0F4F2"><defs><mask id="film-occlusion-17" maskUnits="userSpaceOnUse" x="0" y="0" width="360" height="320"><rect width="360" height="320" fill="white"/><path d="M143 114H322Q329 114 324 120L277 177Q275 180 277 183L324 240Q329 246 322 246H194Z" fill="black"/></mask></defs><g><path fill="#398D85" d="M254 40H298L230 286H186Z" mask="url(#film-occlusion-17)"/><path fill="#5BAFA5" fill-rule="evenodd" d="M143 114H322Q329 114 324 120L277 177Q275 180 277 183L324 240Q329 246 322 246H194Z M172 129H187V141H172Z M202 129H217V141H202Z M232 129H247V141H232Z M262 129H277V141H262Z M221 219H236V231H221Z M251 219H266V231H251Z M281 219H296V231H281Z"/><path fill="#04635F" d="M30 40H124L230 286H142Z"/></g></g><text x="171" y="992" fill="#91A99F" font-size="10" font-family="Segoe UI, Arial, sans-serif" letter-spacing="1">LIGHT</text><g transform="translate(318 980) scale(0.06111111111111111)" color="#F0F4F2"><defs><mask id="film-occlusion-18" maskUnits="userSpaceOnUse" x="0" y="0" width="360" height="320"><rect width="360" height="320" fill="white"/><path d="M143 114H322Q329 114 324 120L277 177Q275 180 277 183L324 240Q329 246 322 246H194Z" fill="black"/></mask></defs><g><path fill="currentColor" d="M254 40H298L230 286H186Z" mask="url(#film-occlusion-18)"/><path fill="currentColor" fill-rule="evenodd" d="M143 114H322Q329 114 324 120L277 177Q275 180 277 183L324 240Q329 246 322 246H194Z M172 129H187V141H172Z M202 129H217V141H202Z M232 129H247V141H232Z M262 129H277V141H262Z M221 219H236V231H221Z M251 219H266V231H251Z M281 219H296V231H281Z"/><path fill="currentColor" d="M30 40H124L230 286H142Z"/></g></g><g transform="translate(358 975) scale(0.08888888888888889)" color="#F0F4F2"><defs><mask id="film-occlusion-19" maskUnits="userSpaceOnUse" x="0" y="0" width="360" height="320"><rect width="360" height="320" fill="white"/><path d="M143 114H322Q329 114 324 120L277 177Q275 180 277 183L324 240Q329 246 322 246H194Z" fill="black"/></mask></defs><g><path fill="currentColor" d="M254 40H298L230 286H186Z" mask="url(#film-occlusion-19)"/><path fill="currentColor" fill-rule="evenodd" d="M143 114H322Q329 114 324 120L277 177Q275 180 277 183L324 240Q329 246 322 246H194Z M172 129H187V141H172Z M202 129H217V141H202Z M232 129H247V141H232Z M262 129H277V141H262Z M221 219H236V231H221Z M251 219H266V231H251Z M281 219H296V231H281Z"/><path fill="currentColor" d="M30 40H124L230 286H142Z"/></g></g><g transform="translate(408 969) scale(0.12222222222222222)" color="#F0F4F2"><defs><mask id="film-occlusion-20" maskUnits="userSpaceOnUse" x="0" y="0" width="360" height="320"><rect width="360" height="320" fill="white"/><path d="M143 114H322Q329 114 324 120L277 177Q275 180 277 183L324 240Q329 246 322 246H194Z" fill="black"/></mask></defs><g><path fill="currentColor" d="M254 40H298L230 286H186Z" mask="url(#film-occlusion-20)"/><path fill="currentColor" fill-rule="evenodd" d="M143 114H322Q329 114 324 120L277 177Q275 180 277 183L324 240Q329 246 322 246H194Z M172 129H187V141H172Z M202 129H217V141H202Z M232 129H247V141H232Z M262 129H277V141H262Z M221 219H236V231H221Z M251 219H266V231H251Z M281 219H296V231H281Z"/><path fill="currentColor" d="M30 40H124L230 286H142Z"/></g></g><text x="474" y="992" fill="#91A99F" font-size="10" font-family="Segoe UI, Arial, sans-serif" letter-spacing=".8">ICON SIZES</text><rect x="628" y="196" width="544" height="844" rx="15" fill="#1B2222" stroke="#35423F"/><text x="656" y="240" fill="#DCE8E4" font-size="14" font-family="Segoe UI, Arial, sans-serif" letter-spacing="1.6">B / TAPERED BLADES</text><g transform="translate(686 263) scale(1.1777777777777778)" color="#F0F4F2"><defs><mask id="film-occlusion-21" maskUnits="userSpaceOnUse" x="0" y="0" width="360" height="320"><rect width="360" height="320" fill="white"/><path d="M148 114H322Q329 114 324 120L269 172Q266 175 269 178L324 230Q329 236 322 236H202Z" fill="black"/></mask></defs><g><path fill="#489F96" d="M266 36H300L236 286H202Z" mask="url(#film-occlusion-21)"/><path fill="#04635F" fill-rule="evenodd" d="M148 114H322Q329 114 324 120L269 172Q266 175 269 178L324 230Q329 236 322 236H202Z M175 128H190V140H175Z M205 128H220V140H205Z M235 128H250V140H235Z M265 128H280V140H265Z M226 210H241V222H226Z M256 210H271V222H256Z M286 210H301V222H286Z"/><path fill="#71D7CD" d="M28 36H122L236 286H156Z"/></g></g><text x="656" y="663" fill="#D5DFDA" font-size="15" font-family="Segoe UI, Arial, sans-serif" >A narrower rear blade and a more open stance.</text><text x="656" y="690" fill="#A9B6B2" font-size="14" font-family="Segoe UI, Arial, sans-serif" >A shorter ribbon exposes more of the overlap.</text><path d="M656 718H1144" stroke="#35423F"/><text x="656" y="750" fill="#8EABA2" font-size="10" font-family="Segoe UI, Arial, sans-serif" letter-spacing="1.6">V CONSTRUCTION</text><g transform="translate(641 765) scale(0.44722222222222224)" color="#F0F4F2"><g><path fill="#489F96" d="M266 36H300L236 286H202Z"/><path fill="#71D7CD" d="M28 36H122L236 286H156Z"/></g></g><text x="819" y="750" fill="#8EABA2" font-size="10" font-family="Segoe UI, Arial, sans-serif" letter-spacing="1.6">JOIN DETAIL</text><svg x="822" y="785" width="127" height="120" viewBox="160 208 106 92"><rect x="160" y="208" width="106" height="92" rx="5" fill="#131A1A"/><g><path fill="#489F96" d="M266 36H300L236 286H202Z"/><path fill="#71D7CD" d="M28 36H122L236 286H156Z"/></g></svg><text x="994" y="750" fill="#8EABA2" font-size="10" font-family="Segoe UI, Arial, sans-serif" letter-spacing="1.6">ONE COLOR</text><g transform="translate(981 784) scale(0.43333333333333335)" color="#F0F4F2"><defs><mask id="film-occlusion-24" maskUnits="userSpaceOnUse" x="0" y="0" width="360" height="320"><rect width="360" height="320" fill="white"/><path d="M148 114H322Q329 114 324 120L269 172Q266 175 269 178L324 230Q329 236 322 236H202Z" fill="black"/></mask></defs><g><path fill="currentColor" d="M266 36H300L236 286H202Z" mask="url(#film-occlusion-24)"/><path fill="currentColor" fill-rule="evenodd" d="M148 114H322Q329 114 324 120L269 172Q266 175 269 178L324 230Q329 236 322 236H202Z M175 128H190V140H175Z M205 128H220V140H205Z M235 128H250V140H235Z M265 128H280V140H265Z M226 210H241V222H226Z M256 210H271V222H256Z M286 210H301V222H286Z"/><path fill="currentColor" d="M28 36H122L236 286H156Z"/></g></g><path d="M656 937H1144" stroke="#35423F"/><rect x="657" y="961" width="64" height="56" rx="7" fill="#EEF3F0"/><g transform="translate(661 965) scale(0.15555555555555556)" color="#F0F4F2"><defs><mask id="film-occlusion-25" maskUnits="userSpaceOnUse" x="0" y="0" width="360" height="320"><rect width="360" height="320" fill="white"/><path d="M148 114H322Q329 114 324 120L269 172Q266 175 269 178L324 230Q329 236 322 236H202Z" fill="black"/></mask></defs><g><path fill="#398D85" d="M266 36H300L236 286H202Z" mask="url(#film-occlusion-25)"/><path fill="#5BAFA5" fill-rule="evenodd" d="M148 114H322Q329 114 324 120L269 172Q266 175 269 178L324 230Q329 236 322 236H202Z M175 128H190V140H175Z M205 128H220V140H205Z M235 128H250V140H235Z M265 128H280V140H265Z M226 210H241V222H226Z M256 210H271V222H256Z M286 210H301V222H286Z"/><path fill="#04635F" d="M28 36H122L236 286H156Z"/></g></g><text x="737" y="992" fill="#91A99F" font-size="10" font-family="Segoe UI, Arial, sans-serif" letter-spacing="1">LIGHT</text><g transform="translate(884 980) scale(0.06111111111111111)" color="#F0F4F2"><defs><mask id="film-occlusion-26" maskUnits="userSpaceOnUse" x="0" y="0" width="360" height="320"><rect width="360" height="320" fill="white"/><path d="M148 114H322Q329 114 324 120L269 172Q266 175 269 178L324 230Q329 236 322 236H202Z" fill="black"/></mask></defs><g><path fill="currentColor" d="M266 36H300L236 286H202Z" mask="url(#film-occlusion-26)"/><path fill="currentColor" fill-rule="evenodd" d="M148 114H322Q329 114 324 120L269 172Q266 175 269 178L324 230Q329 236 322 236H202Z M175 128H190V140H175Z M205 128H220V140H205Z M235 128H250V140H235Z M265 128H280V140H265Z M226 210H241V222H226Z M256 210H271V222H256Z M286 210H301V222H286Z"/><path fill="currentColor" d="M28 36H122L236 286H156Z"/></g></g><g transform="translate(924 975) scale(0.08888888888888889)" color="#F0F4F2"><defs><mask id="film-occlusion-27" maskUnits="userSpaceOnUse" x="0" y="0" width="360" height="320"><rect width="360" height="320" fill="white"/><path d="M148 114H322Q329 114 324 120L269 172Q266 175 269 178L324 230Q329 236 322 236H202Z" fill="black"/></mask></defs><g><path fill="currentColor" d="M266 36H300L236 286H202Z" mask="url(#film-occlusion-27)"/><path fill="currentColor" fill-rule="evenodd" d="M148 114H322Q329 114 324 120L269 172Q266 175 269 178L324 230Q329 236 322 236H202Z M175 128H190V140H175Z M205 128H220V140H205Z M235 128H250V140H235Z M265 128H280V140H265Z M226 210H241V222H226Z M256 210H271V222H256Z M286 210H301V222H286Z"/><path fill="currentColor" d="M28 36H122L236 286H156Z"/></g></g><g transform="translate(974 969) scale(0.12222222222222222)" color="#F0F4F2"><defs><mask id="film-occlusion-28" maskUnits="userSpaceOnUse" x="0" y="0" width="360" height="320"><rect width="360" height="320" fill="white"/><path d="M148 114H322Q329 114 324 120L269 172Q266 175 269 178L324 230Q329 236 322 236H202Z" fill="black"/></mask></defs><g><path fill="currentColor" d="M266 36H300L236 286H202Z" mask="url(#film-occlusion-28)"/><path fill="currentColor" fill-rule="evenodd" d="M148 114H322Q329 114 324 120L269 172Q266 175 269 178L324 230Q329 236 322 236H202Z M175 128H190V140H175Z M205 128H220V140H205Z M235 128H250V140H235Z M265 128H280V140H265Z M226 210H241V222H226Z M256 210H271V222H256Z M286 210H301V222H286Z"/><path fill="currentColor" d="M28 36H122L236 286H156Z"/></g></g><text x="1040" y="992" fill="#91A99F" font-size="10" font-family="Segoe UI, Arial, sans-serif" letter-spacing=".8">ICON SIZES</text><rect x="1194" y="196" width="544" height="844" rx="15" fill="#1B2222" stroke="#35423F"/><text x="1222" y="240" fill="#DCE8E4" font-size="14" font-family="Segoe UI, Arial, sans-serif" letter-spacing="1.6">C / SOFT CUT</text><g transform="translate(1252 263) scale(1.1777777777777778)" color="#F0F4F2"><defs><mask id="film-occlusion-29" maskUnits="userSpaceOnUse" x="0" y="0" width="360" height="320"><rect width="360" height="320" fill="white"/><path d="M145 114H319Q329 114 322 123L280 174Q275 180 280 186L322 237Q329 246 319 246H198Z" fill="black"/></mask></defs><g><path fill="#489F96" d="M260 40H295Q299 40 298 44L230 286H192L256 44Q257 40 260 40Z" mask="url(#film-occlusion-29)"/><path fill="#04635F" fill-rule="evenodd" d="M145 114H319Q329 114 322 123L280 174Q275 180 280 186L322 237Q329 246 319 246H198Z M174 129H185Q187 129 187 131V139Q187 141 185 141H174Q172 141 172 139V131Q172 129 174 129Z M204 129H215Q217 129 217 131V139Q217 141 215 141H204Q202 141 202 139V131Q202 129 204 129Z M234 129H245Q247 129 247 131V139Q247 141 245 141H234Q232 141 232 139V131Q232 129 234 129Z M264 129H275Q277 129 277 131V139Q277 141 275 141H264Q262 141 262 139V131Q262 129 264 129Z M223 219H234Q236 219 236 221V229Q236 231 234 231H223Q221 231 221 229V221Q221 219 223 219Z M253 219H264Q266 219 266 221V229Q266 231 264 231H253Q251 231 251 229V221Q251 219 253 219Z M283 219H294Q296 219 296 221V229Q296 231 294 231H283Q281 231 281 229V221Q281 219 283 219Z"/><path fill="#71D7CD" d="M34 40H121Q125 40 127 45L230 286H154Q149 286 147 281L30 46Q28 40 34 40Z"/></g></g><text x="1222" y="663" fill="#D5DFDA" font-size="15" font-family="Segoe UI, Arial, sans-serif" >Gentler corners around the same overlapping V.</text><text x="1222" y="690" fill="#A9B6B2" font-size="14" font-family="Segoe UI, Arial, sans-serif" >The pointed join stays crisp and continuous.</text><path d="M1222 718H1710" stroke="#35423F"/><text x="1222" y="750" fill="#8EABA2" font-size="10" font-family="Segoe UI, Arial, sans-serif" letter-spacing="1.6">V CONSTRUCTION</text><g transform="translate(1207 765) scale(0.44722222222222224)" color="#F0F4F2"><g><path fill="#489F96" d="M260 40H295Q299 40 298 44L230 286H192L256 44Q257 40 260 40Z"/><path fill="#71D7CD" d="M34 40H121Q125 40 127 45L230 286H154Q149 286 147 281L30 46Q28 40 34 40Z"/></g></g><text x="1385" y="750" fill="#8EABA2" font-size="10" font-family="Segoe UI, Arial, sans-serif" letter-spacing="1.6">JOIN DETAIL</text><svg x="1388" y="785" width="127" height="120" viewBox="160 208 106 92"><rect x="160" y="208" width="106" height="92" rx="5" fill="#131A1A"/><g><path fill="#489F96" d="M260 40H295Q299 40 298 44L230 286H192L256 44Q257 40 260 40Z"/><path fill="#71D7CD" d="M34 40H121Q125 40 127 45L230 286H154Q149 286 147 281L30 46Q28 40 34 40Z"/></g></svg><text x="1560" y="750" fill="#8EABA2" font-size="10" font-family="Segoe UI, Arial, sans-serif" letter-spacing="1.6">ONE COLOR</text><g transform="translate(1547 784) scale(0.43333333333333335)" color="#F0F4F2"><defs><mask id="film-occlusion-32" maskUnits="userSpaceOnUse" x="0" y="0" width="360" height="320"><rect width="360" height="320" fill="white"/><path d="M145 114H319Q329 114 322 123L280 174Q275 180 280 186L322 237Q329 246 319 246H198Z" fill="black"/></mask></defs><g><path fill="currentColor" d="M260 40H295Q299 40 298 44L230 286H192L256 44Q257 40 260 40Z" mask="url(#film-occlusion-32)"/><path fill="currentColor" fill-rule="evenodd" d="M145 114H319Q329 114 322 123L280 174Q275 180 280 186L322 237Q329 246 319 246H198Z M174 129H185Q187 129 187 131V139Q187 141 185 141H174Q172 141 172 139V131Q172 129 174 129Z M204 129H215Q217 129 217 131V139Q217 141 215 141H204Q202 141 202 139V131Q202 129 204 129Z M234 129H245Q247 129 247 131V139Q247 141 245 141H234Q232 141 232 139V131Q232 129 234 129Z M264 129H275Q277 129 277 131V139Q277 141 275 141H264Q262 141 262 139V131Q262 129 264 129Z M223 219H234Q236 219 236 221V229Q236 231 234 231H223Q221 231 221 229V221Q221 219 223 219Z M253 219H264Q266 219 266 221V229Q266 231 264 231H253Q251 231 251 229V221Q251 219 253 219Z M283 219H294Q296 219 296 221V229Q296 231 294 231H283Q281 231 281 229V221Q281 219 283 219Z"/><path fill="currentColor" d="M34 40H121Q125 40 127 45L230 286H154Q149 286 147 281L30 46Q28 40 34 40Z"/></g></g><path d="M1222 937H1710" stroke="#35423F"/><rect x="1223" y="961" width="64" height="56" rx="7" fill="#EEF3F0"/><g transform="translate(1227 965) scale(0.15555555555555556)" color="#F0F4F2"><defs><mask id="film-occlusion-33" maskUnits="userSpaceOnUse" x="0" y="0" width="360" height="320"><rect width="360" height="320" fill="white"/><path d="M145 114H319Q329 114 322 123L280 174Q275 180 280 186L322 237Q329 246 319 246H198Z" fill="black"/></mask></defs><g><path fill="#398D85" d="M260 40H295Q299 40 298 44L230 286H192L256 44Q257 40 260 40Z" mask="url(#film-occlusion-33)"/><path fill="#5BAFA5" fill-rule="evenodd" d="M145 114H319Q329 114 322 123L280 174Q275 180 280 186L322 237Q329 246 319 246H198Z M174 129H185Q187 129 187 131V139Q187 141 185 141H174Q172 141 172 139V131Q172 129 174 129Z M204 129H215Q217 129 217 131V139Q217 141 215 141H204Q202 141 202 139V131Q202 129 204 129Z M234 129H245Q247 129 247 131V139Q247 141 245 141H234Q232 141 232 139V131Q232 129 234 129Z M264 129H275Q277 129 277 131V139Q277 141 275 141H264Q262 141 262 139V131Q262 129 264 129Z M223 219H234Q236 219 236 221V229Q236 231 234 231H223Q221 231 221 229V221Q221 219 223 219Z M253 219H264Q266 219 266 221V229Q266 231 264 231H253Q251 231 251 229V221Q251 219 253 219Z M283 219H294Q296 219 296 221V229Q296 231 294 231H283Q281 231 281 229V221Q281 219 283 219Z"/><path fill="#04635F" d="M34 40H121Q125 40 127 45L230 286H154Q149 286 147 281L30 46Q28 40 34 40Z"/></g></g><text x="1303" y="992" fill="#91A99F" font-size="10" font-family="Segoe UI, Arial, sans-serif" letter-spacing="1">LIGHT</text><g transform="translate(1450 980) scale(0.06111111111111111)" color="#F0F4F2"><defs><mask id="film-occlusion-34" maskUnits="userSpaceOnUse" x="0" y="0" width="360" height="320"><rect width="360" height="320" fill="white"/><path d="M145 114H319Q329 114 322 123L280 174Q275 180 280 186L322 237Q329 246 319 246H198Z" fill="black"/></mask></defs><g><path fill="currentColor" d="M260 40H295Q299 40 298 44L230 286H192L256 44Q257 40 260 40Z" mask="url(#film-occlusion-34)"/><path fill="currentColor" fill-rule="evenodd" d="M145 114H319Q329 114 322 123L280 174Q275 180 280 186L322 237Q329 246 319 246H198Z M174 129H185Q187 129 187 131V139Q187 141 185 141H174Q172 141 172 139V131Q172 129 174 129Z M204 129H215Q217 129 217 131V139Q217 141 215 141H204Q202 141 202 139V131Q202 129 204 129Z M234 129H245Q247 129 247 131V139Q247 141 245 141H234Q232 141 232 139V131Q232 129 234 129Z M264 129H275Q277 129 277 131V139Q277 141 275 141H264Q262 141 262 139V131Q262 129 264 129Z M223 219H234Q236 219 236 221V229Q236 231 234 231H223Q221 231 221 229V221Q221 219 223 219Z M253 219H264Q266 219 266 221V229Q266 231 264 231H253Q251 231 251 229V221Q251 219 253 219Z M283 219H294Q296 219 296 221V229Q296 231 294 231H283Q281 231 281 229V221Q281 219 283 219Z"/><path fill="currentColor" d="M34 40H121Q125 40 127 45L230 286H154Q149 286 147 281L30 46Q28 40 34 40Z"/></g></g><g transform="translate(1490 975) scale(0.08888888888888889)" color="#F0F4F2"><defs><mask id="film-occlusion-35" maskUnits="userSpaceOnUse" x="0" y="0" width="360" height="320"><rect width="360" height="320" fill="white"/><path d="M145 114H319Q329 114 322 123L280 174Q275 180 280 186L322 237Q329 246 319 246H198Z" fill="black"/></mask></defs><g><path fill="currentColor" d="M260 40H295Q299 40 298 44L230 286H192L256 44Q257 40 260 40Z" mask="url(#film-occlusion-35)"/><path fill="currentColor" fill-rule="evenodd" d="M145 114H319Q329 114 322 123L280 174Q275 180 280 186L322 237Q329 246 319 246H198Z M174 129H185Q187 129 187 131V139Q187 141 185 141H174Q172 141 172 139V131Q172 129 174 129Z M204 129H215Q217 129 217 131V139Q217 141 215 141H204Q202 141 202 139V131Q202 129 204 129Z M234 129H245Q247 129 247 131V139Q247 141 245 141H234Q232 141 232 139V131Q232 129 234 129Z M264 129H275Q277 129 277 131V139Q277 141 275 141H264Q262 141 262 139V131Q262 129 264 129Z M223 219H234Q236 219 236 221V229Q236 231 234 231H223Q221 231 221 229V221Q221 219 223 219Z M253 219H264Q266 219 266 221V229Q266 231 264 231H253Q251 231 251 229V221Q251 219 253 219Z M283 219H294Q296 219 296 221V229Q296 231 294 231H283Q281 231 281 229V221Q281 219 283 219Z"/><path fill="currentColor" d="M34 40H121Q125 40 127 45L230 286H154Q149 286 147 281L30 46Q28 40 34 40Z"/></g></g><g transform="translate(1540 969) scale(0.12222222222222222)" color="#F0F4F2"><defs><mask id="film-occlusion-36" maskUnits="userSpaceOnUse" x="0" y="0" width="360" height="320"><rect width="360" height="320" fill="white"/><path d="M145 114H319Q329 114 322 123L280 174Q275 180 280 186L322 237Q329 246 319 246H198Z" fill="black"/></mask></defs><g><path fill="currentColor" d="M260 40H295Q299 40 298 44L230 286H192L256 44Q257 40 260 40Z" mask="url(#film-occlusion-36)"/><path fill="currentColor" fill-rule="evenodd" d="M145 114H319Q329 114 322 123L280 174Q275 180 280 186L322 237Q329 246 319 246H198Z M174 129H185Q187 129 187 131V139Q187 141 185 141H174Q172 141 172 139V131Q172 129 174 129Z M204 129H215Q217 129 217 131V139Q217 141 215 141H204Q202 141 202 139V131Q202 129 204 129Z M234 129H245Q247 129 247 131V139Q247 141 245 141H234Q232 141 232 139V131Q232 129 234 129Z M264 129H275Q277 129 277 131V139Q277 141 275 141H264Q262 141 262 139V131Q262 129 264 129Z M223 219H234Q236 219 236 221V229Q236 231 234 231H223Q221 231 221 229V221Q221 219 223 219Z M253 219H264Q266 219 266 221V229Q266 231 264 231H253Q251 231 251 229V221Q251 219 253 219Z M283 219H294Q296 219 296 221V229Q296 231 294 231H283Q281 231 281 229V221Q281 219 283 219Z"/><path fill="currentColor" d="M34 40H121Q125 40 127 45L230 286H154Q149 286 147 281L30 46Q28 40 34 40Z"/></g></g><text x="1606" y="992" fill="#91A99F" font-size="10" font-family="Segoe UI, Arial, sans-serif" letter-spacing=".8">ICON SIZES</text><text x="62" y="1084" fill="#9BAEA6" font-size="14" font-family="Segoe UI, Arial, sans-serif" >Film #04635F  ·  Front blade #71D7CD  ·  Rear blade #489F96  ·  Transparent, editable SVG artwork</text></svg>